<?xml version="1.0" encoding="UTF-8" standalone="no"?>
<!DOCTYPE svg PUBLIC "-//W3C//DTD SVG 1.1//EN"
 "http://www.w3.org/Graphics/SVG/1.1/DTD/svg11.dtd">
<!-- Generated by graphviz version 2.43.0 (0)
 -->
<!-- Title: %3 Pages: 1 -->
<svg width="332pt" height="977pt"
 viewBox="0.00 0.00 332.00 977.00" xmlns="http://www.w3.org/2000/svg" xmlns:xlink="http://www.w3.org/1999/xlink">
<g id="graph0" class="graph" transform="scale(1 1) rotate(0) translate(4 973)">
<title>%3</title>
<polygon fill="white" stroke="transparent" points="-4,4 -4,-973 328,-973 328,4 -4,4"/>
<!-- edge_job -->
<g id="node1" class="node">
<title>edge_job</title>
<polygon fill="none" stroke="black" points="16,-328.5 16,-356.5 308,-356.5 308,-328.5 16,-328.5"/>
<text text-anchor="start" x="122" y="-339.7" font-family="Helvetica,sans-Serif" font-weight="bold" font-size="16.00">edge_job</text>
<polygon fill="none" stroke="black" points="16,-303.5 16,-328.5 308,-328.5 308,-303.5 16,-303.5"/>
<text text-anchor="start" x="21" y="-313.3" font-family="Helvetica,sans-Serif" text-decoration="underline" font-size="14.00">dag_id</text>
<text text-anchor="start" x="67" y="-313.3" font-family="Helvetica,sans-Serif" font-size="14.00"> </text>
<text text-anchor="start" x="72" y="-313.3" font-family="Helvetica,sans-Serif" font-size="14.00"> [VARCHAR(250)]</text>
<text text-anchor="start" x="193" y="-313.3" font-family="Helvetica,sans-Serif" font-size="14.00"> NOT NULL</text>
<polygon fill="none" stroke="black" points="16,-278.5 16,-303.5 308,-303.5 308,-278.5 16,-278.5"/>
<text text-anchor="start" x="21" y="-288.3" font-family="Helvetica,sans-Serif" text-decoration="underline" font-size="14.00">map_index</text>
<text text-anchor="start" x="97" y="-288.3" font-family="Helvetica,sans-Serif" font-size="14.00"> </text>
<text text-anchor="start" x="102" y="-288.3" font-family="Helvetica,sans-Serif" font-size="14.00"> [INTEGER]</text>
<text text-anchor="start" x="179" y="-288.3" font-family="Helvetica,sans-Serif" font-size="14.00"> NOT NULL</text>
<polygon fill="none" stroke="black" points="16,-253.5 16,-278.5 308,-278.5 308,-253.5 16,-253.5"/>
<text text-anchor="start" x="21" y="-263.3" font-family="Helvetica,sans-Serif" text-decoration="underline" font-size="14.00">run_id</text>
<text text-anchor="start" x="65" y="-263.3" font-family="Helvetica,sans-Serif" font-size="14.00"> </text>
<text text-anchor="start" x="70" y="-263.3" font-family="Helvetica,sans-Serif" font-size="14.00"> [VARCHAR(250)]</text>
<text text-anchor="start" x="191" y="-263.3" font-family="Helvetica,sans-Serif" font-size="14.00"> NOT NULL</text>
<polygon fill="none" stroke="black" points="16,-228.5 16,-253.5 308,-253.5 308,-228.5 16,-228.5"/>
<text text-anchor="start" x="21" y="-238.3" font-family="Helvetica,sans-Serif" text-decoration="underline" font-size="14.00">task_id</text>
<text text-anchor="start" x="70" y="-238.3" font-family="Helvetica,sans-Serif" font-size="14.00"> </text>
<text text-anchor="start" x="75" y="-238.3" font-family="Helvetica,sans-Serif" font-size="14.00"> [VARCHAR(250)]</text>
<text text-anchor="start" x="196" y="-238.3" font-family="Helvetica,sans-Serif" font-size="14.00"> NOT NULL</text>
<polygon fill="none" stroke="black" points="16,-203.5 16,-228.5 308,-228.5 308,-203.5 16,-203.5"/>
<text text-anchor="start" x="21" y="-213.3" font-family="Helvetica,sans-Serif" text-decoration="underline" font-size="14.00">try_number</text>
<text text-anchor="start" x="103" y="-213.3" font-family="Helvetica,sans-Serif" font-size="14.00"> </text>
<text text-anchor="start" x="108" y="-213.3" font-family="Helvetica,sans-Serif" font-size="14.00"> [INTEGER]</text>
<text text-anchor="start" x="185" y="-213.3" font-family="Helvetica,sans-Serif" font-size="14.00"> NOT NULL</text>
<polygon fill="none" stroke="black" points="16,-178.5 16,-203.5 308,-203.5 308,-178.5 16,-178.5"/>
<text text-anchor="start" x="21" y="-188.3" font-family="Helvetica,sans-Serif" font-size="14.00">command</text>
<text text-anchor="start" x="91" y="-188.3" font-family="Helvetica,sans-Serif" font-size="14.00"> </text>
<text text-anchor="start" x="96" y="-188.3" font-family="Helvetica,sans-Serif" font-size="14.00"> [VARCHAR(2048)]</text>
<text text-anchor="start" x="226" y="-188.3" font-family="Helvetica,sans-Serif" font-size="14.00"> NOT NULL</text>
<polygon fill="none" stroke="black" points="16,-153.5 16,-178.5 308,-178.5 308,-153.5 16,-153.5"/>
<text text-anchor="start" x="21" y="-163.3" font-family="Helvetica,sans-Serif" font-size="14.00">concurrency_slots</text>
<text text-anchor="start" x="145" y="-163.3" font-family="Helvetica,sans-Serif" font-size="14.00"> </text>
<text text-anchor="start" x="150" y="-163.3" font-family="Helvetica,sans-Serif" font-size="14.00"> [INTEGER]</text>
<text text-anchor="start" x="227" y="-163.3" font-family="Helvetica,sans-Serif" font-size="14.00"> NOT NULL</text>
<polygon fill="none" stroke="black" points="16,-128.5 16,-153.5 308,-153.5 308,-128.5 16,-128.5"/>
<text text-anchor="start" x="21" y="-138.3" font-family="Helvetica,sans-Serif" font-size="14.00">edge_worker</text>
<text text-anchor="start" x="110" y="-138.3" font-family="Helvetica,sans-Serif" font-size="14.00"> </text>
<text text-anchor="start" x="115" y="-138.3" font-family="Helvetica,sans-Serif" font-size="14.00"> [VARCHAR(64)]</text>
<polygon fill="none" stroke="black" points="16,-103.5 16,-128.5 308,-128.5 308,-103.5 16,-103.5"/>
<text text-anchor="start" x="21" y="-113.3" font-family="Helvetica,sans-Serif" font-size="14.00">last_update</text>
<text text-anchor="start" x="102" y="-113.3" font-family="Helvetica,sans-Serif" font-size="14.00"> </text>
<text text-anchor="start" x="107" y="-113.3" font-family="Helvetica,sans-Serif" font-size="14.00"> [TIMESTAMP]</text>
<polygon fill="none" stroke="black" points="16,-78.5 16,-103.5 308,-103.5 308,-78.5 16,-78.5"/>
<text text-anchor="start" x="21" y="-88.3" font-family="Helvetica,sans-Serif" font-size="14.00">queue</text>
<text text-anchor="start" x="65" y="-88.3" font-family="Helvetica,sans-Serif" font-size="14.00"> </text>
<text text-anchor="start" x="70" y="-88.3" font-family="Helvetica,sans-Serif" font-size="14.00"> [VARCHAR(256)]</text>
<text text-anchor="start" x="191" y="-88.3" font-family="Helvetica,sans-Serif" font-size="14.00"> NOT NULL</text>
<polygon fill="none" stroke="black" points="16,-53.5 16,-78.5 308,-78.5 308,-53.5 16,-53.5"/>
<text text-anchor="start" x="21" y="-63.3" font-family="Helvetica,sans-Serif" font-size="14.00">queued_dttm</text>
<text text-anchor="start" x="114" y="-63.3" font-family="Helvetica,sans-Serif" font-size="14.00"> </text>
<text text-anchor="start" x="119" y="-63.3" font-family="Helvetica,sans-Serif" font-size="14.00"> [TIMESTAMP]</text>
<polygon fill="none" stroke="black" points="16,-28.5 16,-53.5 308,-53.5 308,-28.5 16,-28.5"/>
<text text-anchor="start" x="21" y="-38.3" font-family="Helvetica,sans-Serif" font-size="14.00">state</text>
<text text-anchor="start" x="56" y="-38.3" font-family="Helvetica,sans-Serif" font-size="14.00"> </text>
<text text-anchor="start" x="61" y="-38.3" font-family="Helvetica,sans-Serif" font-size="14.00"> [VARCHAR(20)]</text>
<text text-anchor="start" x="173" y="-38.3" font-family="Helvetica,sans-Serif" font-size="14.00"> NOT NULL</text>
<polygon fill="none" stroke="black" points="16,-3.5 16,-28.5 308,-28.5 308,-3.5 16,-3.5"/>
<text text-anchor="start" x="21" y="-13.3" font-family="Helvetica,sans-Serif" font-size="14.00">team_name</text>
<text text-anchor="start" x="103" y="-13.3" font-family="Helvetica,sans-Serif" font-size="14.00"> </text>
<text text-anchor="start" x="108" y="-13.3" font-family="Helvetica,sans-Serif" font-size="14.00"> [VARCHAR(64)]</text>
</g>
<!-- edge_logs -->
<g id="node2" class="node">
<title>edge_logs</title>
<polygon fill="none" stroke="black" points="14,-557.5 14,-585.5 310,-585.5 310,-557.5 14,-557.5"/>
<text text-anchor="start" x="117" y="-568.7" font-family="Helvetica,sans-Serif" font-weight="bold" font-size="16.00">edge_logs</text>
<polygon fill="none" stroke="black" points="14,-532.5 14,-557.5 310,-557.5 310,-532.5 14,-532.5"/>
<text text-anchor="start" x="19" y="-542.3" font-family="Helvetica,sans-Serif" text-decoration="underline" font-size="14.00">dag_id</text>
<text text-anchor="start" x="65" y="-542.3" font-family="Helvetica,sans-Serif" font-size="14.00"> </text>
<text text-anchor="start" x="70" y="-542.3" font-family="Helvetica,sans-Serif" font-size="14.00"> [VARCHAR(250)]</text>
<text text-anchor="start" x="191" y="-542.3" font-family="Helvetica,sans-Serif" font-size="14.00"> NOT NULL</text>
<polygon fill="none" stroke="black" points="14,-507.5 14,-532.5 310,-532.5 310,-507.5 14,-507.5"/>
<text text-anchor="start" x="19" y="-517.3" font-family="Helvetica,sans-Serif" text-decoration="underline" font-size="14.00">log_chunk_time</text>
<text text-anchor="start" x="128" y="-517.3" font-family="Helvetica,sans-Serif" font-size="14.00"> </text>
<text text-anchor="start" x="133" y="-517.3" font-family="Helvetica,sans-Serif" font-size="14.00"> [TIMESTAMP]</text>
<text text-anchor="start" x="229" y="-517.3" font-family="Helvetica,sans-Serif" font-size="14.00"> NOT NULL</text>
<polygon fill="none" stroke="black" points="14,-482.5 14,-507.5 310,-507.5 310,-482.5 14,-482.5"/>
<text text-anchor="start" x="19" y="-492.3" font-family="Helvetica,sans-Serif" text-decoration="underline" font-size="14.00">map_index</text>
<text text-anchor="start" x="95" y="-492.3" font-family="Helvetica,sans-Serif" font-size="14.00"> </text>
<text text-anchor="start" x="100" y="-492.3" font-family="Helvetica,sans-Serif" font-size="14.00"> [INTEGER]</text>
<text text-anchor="start" x="177" y="-492.3" font-family="Helvetica,sans-Serif" font-size="14.00"> NOT NULL</text>
<polygon fill="none" stroke="black" points="14,-457.5 14,-482.5 310,-482.5 310,-457.5 14,-457.5"/>
<text text-anchor="start" x="19" y="-467.3" font-family="Helvetica,sans-Serif" text-decoration="underline" font-size="14.00">run_id</text>
<text text-anchor="start" x="63" y="-467.3" font-family="Helvetica,sans-Serif" font-size="14.00"> </text>
<text text-anchor="start" x="68" y="-467.3" font-family="Helvetica,sans-Serif" font-size="14.00"> [VARCHAR(250)]</text>
<text text-anchor="start" x="189" y="-467.3" font-family="Helvetica,sans-Serif" font-size="14.00"> NOT NULL</text>
<polygon fill="none" stroke="black" points="14,-432.5 14,-457.5 310,-457.5 310,-432.5 14,-432.5"/>
<text text-anchor="start" x="19" y="-442.3" font-family="Helvetica,sans-Serif" text-decoration="underline" font-size="14.00">task_id</text>
<text text-anchor="start" x="68" y="-442.3" font-family="Helvetica,sans-Serif" font-size="14.00"> </text>
<text text-anchor="start" x="73" y="-442.3" font-family="Helvetica,sans-Serif" font-size="14.00"> [VARCHAR(250)]</text>
<text text-anchor="start" x="194" y="-442.3" font-family="Helvetica,sans-Serif" font-size="14.00"> NOT NULL</text>
<polygon fill="none" stroke="black" points="14,-407.5 14,-432.5 310,-432.5 310,-407.5 14,-407.5"/>
<text text-anchor="start" x="19" y="-417.3" font-family="Helvetica,sans-Serif" text-decoration="underline" font-size="14.00">try_number</text>
<text text-anchor="start" x="101" y="-417.3" font-family="Helvetica,sans-Serif" font-size="14.00"> </text>
<text text-anchor="start" x="106" y="-417.3" font-family="Helvetica,sans-Serif" font-size="14.00"> [INTEGER]</text>
<text text-anchor="start" x="183" y="-417.3" font-family="Helvetica,sans-Serif" font-size="14.00"> NOT NULL</text>
<polygon fill="none" stroke="black" points="14,-382.5 14,-407.5 310,-407.5 310,-382.5 14,-382.5"/>
<text text-anchor="start" x="19" y="-392.3" font-family="Helvetica,sans-Serif" font-size="14.00">log_chunk_data</text>
<text text-anchor="start" x="128" y="-392.3" font-family="Helvetica,sans-Serif" font-size="14.00"> </text>
<text text-anchor="start" x="133" y="-392.3" font-family="Helvetica,sans-Serif" font-size="14.00"> [TEXT]</text>
<text text-anchor="start" x="183" y="-392.3" font-family="Helvetica,sans-Serif" font-size="14.00"> NOT NULL</text>
</g>
<!-- edge_worker -->
<g id="node3" class="node">
<title>edge_worker</title>
<polygon fill="none" stroke="black" points="8,-936.5 8,-964.5 316,-964.5 316,-936.5 8,-936.5"/>
<text text-anchor="start" x="104" y="-947.7" font-family="Helvetica,sans-Serif" font-weight="bold" font-size="16.00">edge_worker</text>
<polygon fill="none" stroke="black" points="8,-911.5 8,-936.5 316,-936.5 316,-911.5 8,-911.5"/>
<text text-anchor="start" x="13" y="-921.3" font-family="Helvetica,sans-Serif" text-decoration="underline" font-size="14.00">worker_name</text>
<text text-anchor="start" x="107" y="-921.3" font-family="Helvetica,sans-Serif" font-size="14.00"> </text>
<text text-anchor="start" x="112" y="-921.3" font-family="Helvetica,sans-Serif" font-size="14.00"> [VARCHAR(64)]</text>
<text text-anchor="start" x="224" y="-921.3" font-family="Helvetica,sans-Serif" font-size="14.00"> NOT NULL</text>
<polygon fill="none" stroke="black" points="8,-886.5 8,-911.5 316,-911.5 316,-886.5 8,-886.5"/>
<text text-anchor="start" x="13" y="-896.3" font-family="Helvetica,sans-Serif" font-size="14.00">concurrency</text>
<text text-anchor="start" x="98" y="-896.3" font-family="Helvetica,sans-Serif" font-size="14.00"> </text>
<text text-anchor="start" x="103" y="-896.3" font-family="Helvetica,sans-Serif" font-size="14.00"> [INTEGER]</text>
<polygon fill="none" stroke="black" points="8,-861.5 8,-886.5 316,-886.5 316,-861.5 8,-861.5"/>
<text text-anchor="start" x="13" y="-871.3" font-family="Helvetica,sans-Serif" font-size="14.00">first_online</text>
<text text-anchor="start" x="90" y="-871.3" font-family="Helvetica,sans-Serif" font-size="14.00"> </text>
<text text-anchor="start" x="95" y="-871.3" font-family="Helvetica,sans-Serif" font-size="14.00"> [TIMESTAMP]</text>
<polygon fill="none" stroke="black" points="8,-836.5 8,-861.5 316,-861.5 316,-836.5 8,-836.5"/>
<text text-anchor="start" x="13" y="-846.3" font-family="Helvetica,sans-Serif" font-size="14.00">jobs_active</text>
<text text-anchor="start" x="90" y="-846.3" font-family="Helvetica,sans-Serif" font-size="14.00"> </text>
<text text-anchor="start" x="95" y="-846.3" font-family="Helvetica,sans-Serif" font-size="14.00"> [INTEGER]</text>
<text text-anchor="start" x="172" y="-846.3" font-family="Helvetica,sans-Serif" font-size="14.00"> NOT NULL</text>
<polygon fill="none" stroke="black" points="8,-811.5 8,-836.5 316,-836.5 316,-811.5 8,-811.5"/>
<text text-anchor="start" x="13" y="-821.3" font-family="Helvetica,sans-Serif" font-size="14.00">jobs_failed</text>
<text text-anchor="start" x="87" y="-821.3" font-family="Helvetica,sans-Serif" font-size="14.00"> </text>
<text text-anchor="start" x="92" y="-821.3" font-family="Helvetica,sans-Serif" font-size="14.00"> [INTEGER]</text>
<text text-anchor="start" x="169" y="-821.3" font-family="Helvetica,sans-Serif" font-size="14.00"> NOT NULL</text>
<polygon fill="none" stroke="black" points="8,-786.5 8,-811.5 316,-811.5 316,-786.5 8,-786.5"/>
<text text-anchor="start" x="13" y="-796.3" font-family="Helvetica,sans-Serif" font-size="14.00">jobs_success</text>
<text text-anchor="start" x="104" y="-796.3" font-family="Helvetica,sans-Serif" font-size="14.00"> </text>
<text text-anchor="start" x="109" y="-796.3" font-family="Helvetica,sans-Serif" font-size="14.00"> [INTEGER]</text>
<text text-anchor="start" x="186" y="-796.3" font-family="Helvetica,sans-Serif" font-size="14.00"> NOT NULL</text>
<polygon fill="none" stroke="black" points="8,-761.5 8,-786.5 316,-786.5 316,-761.5 8,-761.5"/>
<text text-anchor="start" x="13" y="-771.3" font-family="Helvetica,sans-Serif" font-size="14.00">jobs_taken</text>
<text text-anchor="start" x="87" y="-771.3" font-family="Helvetica,sans-Serif" font-size="14.00"> </text>
<text text-anchor="start" x="92" y="-771.3" font-family="Helvetica,sans-Serif" font-size="14.00"> [INTEGER]</text>
<text text-anchor="start" x="169" y="-771.3" font-family="Helvetica,sans-Serif" font-size="14.00"> NOT NULL</text>
<polygon fill="none" stroke="black" points="8,-736.5 8,-761.5 316,-761.5 316,-736.5 8,-736.5"/>
<text text-anchor="start" x="13" y="-746.3" font-family="Helvetica,sans-Serif" font-size="14.00">last_update</text>
<text text-anchor="start" x="94" y="-746.3" font-family="Helvetica,sans-Serif" font-size="14.00"> </text>
<text text-anchor="start" x="99" y="-746.3" font-family="Helvetica,sans-Serif" font-size="14.00"> [TIMESTAMP]</text>
<polygon fill="none" stroke="black" points="8,-711.5 8,-736.5 316,-736.5 316,-711.5 8,-711.5"/>
<text text-anchor="start" x="13" y="-721.3" font-family="Helvetica,sans-Serif" font-size="14.00">maintenance_comment</text>
<text text-anchor="start" x="176" y="-721.3" font-family="Helvetica,sans-Serif" font-size="14.00"> </text>
<text text-anchor="start" x="181" y="-721.3" font-family="Helvetica,sans-Serif" font-size="14.00"> [VARCHAR(1024)]</text>
<polygon fill="none" stroke="black" points="8,-686.5 8,-711.5 316,-711.5 316,-686.5 8,-686.5"/>
<text text-anchor="start" x="13" y="-696.3" font-family="Helvetica,sans-Serif" font-size="14.00">queues</text>
<text text-anchor="start" x="65" y="-696.3" font-family="Helvetica,sans-Serif" font-size="14.00"> </text>
<text text-anchor="start" x="70" y="-696.3" font-family="Helvetica,sans-Serif" font-size="14.00"> [VARCHAR(256)]</text>
<polygon fill="none" stroke="black" points="8,-661.5 8,-686.5 316,-686.5 316,-661.5 8,-661.5"/>
<text text-anchor="start" x="13" y="-671.3" font-family="Helvetica,sans-Serif" font-size="14.00">state</text>
<text text-anchor="start" x="48" y="-671.3" font-family="Helvetica,sans-Serif" font-size="14.00"> </text>
<text text-anchor="start" x="53" y="-671.3" font-family="Helvetica,sans-Serif" font-size="14.00"> [VARCHAR(20)]</text>
<text text-anchor="start" x="165" y="-671.3" font-family="Helvetica,sans-Serif" font-size="14.00"> NOT NULL</text>
<polygon fill="none" stroke="black" points="8,-636.5 8,-661.5 316,-661.5 316,-636.5 8,-636.5"/>
<text text-anchor="start" x="13" y="-646.3" font-family="Helvetica,sans-Serif" font-size="14.00">sysinfo</text>
<text text-anchor="start" x="63" y="-646.3" font-family="Helvetica,sans-Serif" font-size="14.00"> </text>
<text text-anchor="start" x="68" y="-646.3" font-family="Helvetica,sans-Serif" font-size="14.00"> [VARCHAR(256)]</text>
<polygon fill="none" stroke="black" points="8,-611.5 8,-636.5 316,-636.5 316,-611.5 8,-611.5"/>
<text text-anchor="start" x="13" y="-621.3" font-family="Helvetica,sans-Serif" font-size="14.00">team_name</text>
<text text-anchor="start" x="95" y="-621.3" font-family="Helvetica,sans-Serif" font-size="14.00"> </text>
<text text-anchor="start" x="100" y="-621.3" font-family="Helvetica,sans-Serif" font-size="14.00"> [VARCHAR(64)]</text>
</g>
</g>
</svg>
