<?xml version="1.0" encoding="UTF-8" standalone="no"?>
<!DOCTYPE svg PUBLIC "-//W3C//DTD SVG 1.1//EN"
 "http://www.w3.org/Graphics/SVG/1.1/DTD/svg11.dtd">
<!-- Generated by graphviz version 2.43.0 (0)
 -->
<!-- Title: A Pages: 1 -->
<svg width="505pt" height="215pt"
 viewBox="0.00 0.00 505.00 215.00" xmlns="http://www.w3.org/2000/svg" xmlns:xlink="http://www.w3.org/1999/xlink">
<g id="graph0" class="graph" transform="scale(1 1) rotate(0) translate(4 211)">
<title>A</title>
<polygon fill="white" stroke="transparent" points="-4,4 -4,-211 501,-211 501,4 -4,4"/>
<g id="clust1" class="cluster">
<title>cluster</title>
<polygon fill="none" stroke="black" points="8,-8 8,-199 489,-199 489,-8 8,-8"/>
<text text-anchor="middle" x="248.5" y="-183.8" font-family="Times,serif" font-size="14.00">Cluster</text>
</g>
<g id="clust4" class="cluster">
<title>cluster_queue</title>
<polygon fill="none" stroke="black" points="207,-16 207,-91 481,-91 481,-16 207,-16"/>
<text text-anchor="middle" x="344" y="-75.8" font-family="Times,serif" font-size="14.00">Celery</text>
</g>
<!-- dag -->
<g id="node1" class="node">
<title>dag</title>
<path fill="none" stroke="black" d="M184.5,-60C184.5,-60 129.5,-60 129.5,-60 123.5,-60 117.5,-54 117.5,-48 117.5,-48 117.5,-36 117.5,-36 117.5,-30 123.5,-24 129.5,-24 129.5,-24 184.5,-24 184.5,-24 190.5,-24 196.5,-30 196.5,-36 196.5,-36 196.5,-48 196.5,-48 196.5,-54 190.5,-60 184.5,-60"/>
<text text-anchor="middle" x="157" y="-38.3" font-family="Times,serif" font-size="14.00">Dag files</text>
</g>
<!-- database -->
<g id="node2" class="node">
<title>database</title>
<path fill="none" stroke="black" d="M87.5,-60C87.5,-60 28.5,-60 28.5,-60 22.5,-60 16.5,-54 16.5,-48 16.5,-48 16.5,-36 16.5,-36 16.5,-30 22.5,-24 28.5,-24 28.5,-24 87.5,-24 87.5,-24 93.5,-24 99.5,-30 99.5,-36 99.5,-36 99.5,-48 99.5,-48 99.5,-54 93.5,-60 87.5,-60"/>
<text text-anchor="middle" x="58" y="-38.3" font-family="Times,serif" font-size="14.00">Database</text>
</g>
<!-- workers -->
<g id="node3" class="node">
<title>workers</title>
<path fill="none" stroke="black" d="M215,-168C215,-168 163,-168 163,-168 157,-168 151,-162 151,-156 151,-156 151,-144 151,-144 151,-138 157,-132 163,-132 163,-132 215,-132 215,-132 221,-132 227,-138 227,-144 227,-144 227,-156 227,-156 227,-162 221,-168 215,-168"/>
<text text-anchor="middle" x="189" y="-146.3" font-family="Times,serif" font-size="14.00">Workers</text>
</g>
<!-- workers&#45;&gt;dag -->
<g id="edge4" class="edge">
<title>workers&#45;&gt;dag</title>
<path fill="none" stroke="black" d="M169.48,-131.81C164.85,-126.6 160.52,-120.51 158,-114 152.7,-100.3 152.11,-83.98 153,-70.43"/>
<polygon fill="black" stroke="black" points="156.51,-70.56 153.97,-60.27 149.54,-69.9 156.51,-70.56"/>
<text text-anchor="middle" x="163" y="-102.8" font-family="Times,serif" font-size="14.00">4</text>
</g>
<!-- workers&#45;&gt;database -->
<g id="edge5" class="edge">
<title>workers&#45;&gt;database</title>
<path fill="none" stroke="black" d="M165.01,-132C157.03,-126.31 148.11,-119.91 140,-114 126.13,-103.9 122.16,-102.01 109,-91 100.24,-83.67 91.04,-75.25 82.9,-67.53"/>
<polygon fill="black" stroke="black" points="85.11,-64.81 75.47,-60.41 80.26,-69.86 85.11,-64.81"/>
<text text-anchor="middle" x="145" y="-102.8" font-family="Times,serif" font-size="14.00">5</text>
</g>
<!-- queue_broker -->
<g id="node6" class="node">
<title>queue_broker</title>
<path fill="none" stroke="black" d="M461,-60C461,-60 371,-60 371,-60 365,-60 359,-54 359,-48 359,-48 359,-36 359,-36 359,-30 365,-24 371,-24 371,-24 461,-24 461,-24 467,-24 473,-30 473,-36 473,-36 473,-48 473,-48 473,-54 467,-60 461,-60"/>
<text text-anchor="middle" x="416" y="-38.3" font-family="Times,serif" font-size="14.00">Queue broker</text>
</g>
<!-- workers&#45;&gt;queue_broker -->
<g id="edge7" class="edge">
<title>workers&#45;&gt;queue_broker</title>
<path fill="none" stroke="black" d="M196.08,-131.98C201.81,-120.54 211.07,-106.26 224,-99 248.46,-85.26 323.61,-100.52 350,-91 364.69,-85.7 378.97,-76.06 390.47,-66.81"/>
<polygon fill="black" stroke="black" points="392.92,-69.32 398.31,-60.2 388.41,-63.97 392.92,-69.32"/>
<text text-anchor="middle" x="229" y="-102.8" font-family="Times,serif" font-size="14.00">7</text>
</g>
<!-- queue_result_backend -->
<g id="node7" class="node">
<title>queue_result_backend</title>
<path fill="none" stroke="black" d="M329,-60C329,-60 227,-60 227,-60 221,-60 215,-54 215,-48 215,-48 215,-36 215,-36 215,-30 221,-24 227,-24 227,-24 329,-24 329,-24 335,-24 341,-30 341,-36 341,-36 341,-48 341,-48 341,-54 335,-60 329,-60"/>
<text text-anchor="middle" x="278" y="-38.3" font-family="Times,serif" font-size="14.00">Result backend</text>
</g>
<!-- workers&#45;&gt;queue_result_backend -->
<g id="edge6" class="edge">
<title>workers&#45;&gt;queue_result_backend</title>
<path fill="none" stroke="black" d="M185.3,-131.76C184.06,-121.37 184.38,-108.37 191,-99 196.52,-91.18 202.6,-95.6 211,-91 223.9,-83.93 237.24,-74.8 248.59,-66.4"/>
<polygon fill="black" stroke="black" points="250.98,-68.99 256.85,-60.17 246.76,-63.41 250.98,-68.99"/>
<text text-anchor="middle" x="196" y="-102.8" font-family="Times,serif" font-size="14.00">6</text>
</g>
<!-- scheduler -->
<g id="node4" class="node">
<title>scheduler</title>
<path fill="none" stroke="black" d="M337.5,-168C337.5,-168 272.5,-168 272.5,-168 266.5,-168 260.5,-162 260.5,-156 260.5,-156 260.5,-144 260.5,-144 260.5,-138 266.5,-132 272.5,-132 272.5,-132 337.5,-132 337.5,-132 343.5,-132 349.5,-138 349.5,-144 349.5,-144 349.5,-156 349.5,-156 349.5,-162 343.5,-168 337.5,-168"/>
<text text-anchor="middle" x="305" y="-146.3" font-family="Times,serif" font-size="14.00">Scheduler</text>
</g>
<!-- scheduler&#45;&gt;dag -->
<g id="edge8" class="edge">
<title>scheduler&#45;&gt;dag</title>
<path fill="none" stroke="black" d="M296.53,-131.71C290.06,-120.45 280.04,-106.51 267,-99 242.16,-84.69 228.62,-103.87 203,-91 192.26,-85.61 182.65,-76.66 175.02,-67.94"/>
<polygon fill="black" stroke="black" points="177.65,-65.62 168.6,-60.11 172.23,-70.06 177.65,-65.62"/>
<text text-anchor="middle" x="288" y="-102.8" font-family="Times,serif" font-size="14.00">8</text>
</g>
<!-- scheduler&#45;&gt;database -->
<g id="edge9" class="edge">
<title>scheduler&#45;&gt;database</title>
<path fill="none" stroke="black" d="M280.82,-131.74C260.78,-117.48 235.37,-99.48 234,-99 207.75,-89.75 134.53,-102.08 109,-91 97.27,-85.91 86.57,-76.9 78.03,-68.05"/>
<polygon fill="black" stroke="black" points="80.42,-65.47 71.11,-60.41 75.23,-70.17 80.42,-65.47"/>
<text text-anchor="middle" x="259" y="-102.8" font-family="Times,serif" font-size="14.00">9</text>
</g>
<!-- scheduler&#45;&gt;queue_broker -->
<g id="edge11" class="edge">
<title>scheduler&#45;&gt;queue_broker</title>
<path fill="none" stroke="black" d="M322.83,-131.97C341.17,-114.46 369.9,-87.02 390.61,-67.25"/>
<polygon fill="black" stroke="black" points="393.03,-69.78 397.84,-60.34 388.19,-64.72 393.03,-69.78"/>
<text text-anchor="middle" x="366.5" y="-102.8" font-family="Times,serif" font-size="14.00">11</text>
</g>
<!-- scheduler&#45;&gt;queue_result_backend -->
<g id="edge10" class="edge">
<title>scheduler&#45;&gt;queue_result_backend</title>
<path fill="none" stroke="black" d="M304.44,-131.68C303.83,-121.96 302.58,-109.68 300,-99 297.62,-89.16 293.89,-78.74 290.17,-69.59"/>
<polygon fill="black" stroke="black" points="293.34,-68.09 286.21,-60.25 286.89,-70.83 293.34,-68.09"/>
<text text-anchor="middle" x="311.5" y="-102.8" font-family="Times,serif" font-size="14.00">10</text>
</g>
<!-- web -->
<g id="node5" class="node">
<title>web</title>
<path fill="none" stroke="black" d="M103,-168C103,-168 29,-168 29,-168 23,-168 17,-162 17,-156 17,-156 17,-144 17,-144 17,-138 23,-132 29,-132 29,-132 103,-132 103,-132 109,-132 115,-138 115,-144 115,-144 115,-156 115,-156 115,-162 109,-168 103,-168"/>
<text text-anchor="middle" x="66" y="-146.3" font-family="Times,serif" font-size="14.00">Web server</text>
</g>
<!-- web&#45;&gt;dag -->
<g id="edge2" class="edge">
<title>web&#45;&gt;dag</title>
<path fill="none" stroke="black" d="M71.65,-131.95C75.87,-121.36 82.55,-108.08 92,-99 98.02,-93.21 102.17,-95.8 109,-91 118.5,-84.32 127.8,-75.68 135.64,-67.57"/>
<polygon fill="black" stroke="black" points="138.4,-69.73 142.67,-60.04 133.29,-64.95 138.4,-69.73"/>
<text text-anchor="middle" x="97" y="-102.8" font-family="Times,serif" font-size="14.00">2</text>
</g>
<!-- web&#45;&gt;database -->
<g id="edge3" class="edge">
<title>web&#45;&gt;database</title>
<path fill="none" stroke="black" d="M61.88,-131.65C60.72,-126.05 59.61,-119.79 59,-114 57.49,-99.73 57.14,-83.76 57.22,-70.58"/>
<polygon fill="black" stroke="black" points="60.72,-70.32 57.36,-60.27 53.72,-70.22 60.72,-70.32"/>
<text text-anchor="middle" x="64" y="-102.8" font-family="Times,serif" font-size="14.00">3</text>
</g>
<!-- web&#45;&gt;workers -->
<g id="edge1" class="edge">
<title>web&#45;&gt;workers</title>
<path fill="none" stroke="black" d="M115.32,-150C123.59,-150 132.17,-150 140.42,-150"/>
<polygon fill="black" stroke="black" points="140.65,-153.5 150.65,-150 140.65,-146.5 140.65,-153.5"/>
<text text-anchor="middle" x="133" y="-156.8" font-family="Times,serif" font-size="14.00">1</text>
</g>
</g>
</svg>
